<?xml version="1.0" encoding="utf-8"?>
<!-- Generator: Adobe Illustrator 15.1.0, SVG Export Plug-In . SVG Version: 6.00 Build 0)  -->
<!DOCTYPE svg PUBLIC "-//W3C//DTD SVG 1.1//EN" "http://www.w3.org/Graphics/SVG/1.1/DTD/svg11.dtd">
<svg version="1.1" id="レイヤー_1" xmlns="http://www.w3.org/2000/svg" xmlns:xlink="http://www.w3.org/1999/xlink" x="0px"
	 y="0px" width="841.89px" height="283.464px" viewBox="0 0 841.89 283.464" enable-background="new 0 0 841.89 283.464"
	 xml:space="preserve">
<g>
</g>
<g>
</g>
<g>
</g>
<g>
	<path d="M50.499,138.769c3.794-12.155,11.683-38.895,14.529-48.163c1.298-3.95,2.596-5.773,3.894-5.773
		c1.348,0,2.696,2.127,4.044,5.773c6.441,17.928,16.826,53.024,24.364,82.803l-2.995,8.355c-7.09-29.93-17.524-65.938-23.116-81.739
		c-0.849-2.431-1.498-3.798-2.147-3.798s-1.248,1.52-2.047,3.798c-2.347,7.749-9.636,33.273-12.981,44.212
		c0.05,0.304,0.05,0.76,0.05,1.063c0,1.215-0.2,2.431-0.499,3.19L50.499,138.769z M88.344,61.739c3.045,0,5.542,7.597,5.542,17.017
		s-2.496,17.016-5.542,17.016c-3.146,0-5.642-7.596-5.642-17.016C82.702,69.032,85.298,61.739,88.344,61.739z M92.238,78.756
		c0-6.685-1.748-12.155-3.894-12.155c-2.197,0-3.994,5.47-3.994,12.155c0,6.533,1.797,12.002,3.994,12.002
		C90.59,90.758,92.238,84.985,92.238,78.756z"/>
	<path d="M110.108,104.432c1.498,9.268,3.146,23.854,3.745,32.666l-2.796,2.279c-0.599-8.812-2.147-22.638-3.645-32.361
		L110.108,104.432z M139.915,105.496c-0.1,1.368-0.599,1.671-1.049,1.52c-3.894,44.364-11.233,71.56-23.315,86.449
		c-0.399-1.823-1.298-5.317-1.947-6.989c11.933-14.281,18.772-39.198,22.417-84.474L139.915,105.496z M122.241,97.14
		c1.048,10.179,1.997,24.765,2.347,34.488l-2.946,1.671c-0.299-9.724-1.248-23.701-2.347-34.185L122.241,97.14z"/>
	<path d="M187.792,144.542c-5.093-8.356-12.083-18.232-17.524-24.765v75.966h-3.745V63.714l5.042,0.912
		c-0.05,1.671-0.449,2.735-1.298,3.191v44.364l0.749-3.19c5.841,6.533,13.58,17.017,18.772,25.373L187.792,144.542z"/>
	<path d="M214.749,130.413c-2.247,17.776-5.542,33.425-9.386,44.972l-2.896-5.773c3.745-10.635,6.99-25.221,9.037-42.845
		L214.749,130.413z M225.434,107.015v71.863c0,16.561-3.844,16.561-11.833,16.561c-0.2-2.734-0.599-7.141-1.099-10.179
		c1.448,0.151,3.045,0.151,4.394,0.151h2.896c1.398,0,2.047-2.734,2.047-6.381v-72.016h-16.975V96.836h16.975V65.234l4.743,0.76
		c-0.05,1.519-0.399,2.583-1.148,2.887v27.956h16.875v10.179H225.434z M234.371,125.703c3.645,12.307,7.838,30.083,10.535,44.212
		l-3.195,5.622c-2.447-13.978-6.84-33.425-10.186-45.124L234.371,125.703z M233.771,63.867c2.247,6.077,4.793,15.345,6.241,22.182
		l-1.897,4.406c-1.448-6.685-4.094-16.561-6.241-22.03L233.771,63.867z M240.961,57.03c2.296,6.229,4.893,15.345,6.291,22.03
		l-1.897,4.558c-1.448-6.685-4.144-16.257-6.241-22.03L240.961,57.03z"/>
	<path d="M287.64,144.542c-5.093-8.356-12.083-18.232-17.524-24.765v75.966h-3.745V63.714l5.042,0.912
		c-0.05,1.671-0.449,2.735-1.298,3.191v44.364l0.749-3.19c5.841,6.533,13.58,17.017,18.772,25.373L287.64,144.542z"/>
	<path d="M313.798,87.568c-0.05,1.367-0.499,2.279-1.148,2.583c-0.3,40.87-1.398,78.093-9.087,105.288
		c-0.799-1.822-1.997-4.102-2.996-5.772c7.439-24.613,8.338-62.596,8.488-103.466L313.798,87.568z M326.729,175.081
		c8.338-12.307,13.73-34.488,16.625-61.077c0.749,1.975,2.247,4.558,3.096,5.925c-3.545,30.69-9.736,53.328-20.37,68.673
		c-0.15,1.216-0.499,2.432-0.849,3.039l-2.596-10.027l0.549-2.279V67.817l4.643,0.76c-0.05,1.367-0.399,2.583-1.099,2.886V175.081z"
		/>
	<path d="M378.55,129.957c0,8.66-2.297,15.649-5.143,15.649s-5.143-6.989-5.143-15.649s2.297-15.649,5.143-15.649
		C376.354,114.308,378.55,121.601,378.55,129.957z"/>
	<path d="M418.289,143.023c-0.25-2.431-0.649-5.317-1.148-8.356l-5.442,0.912v65.027h-3.045v-64.571
		c-2.846,0.304-5.442,0.76-7.489,0.912c-0.05,1.215-0.35,1.671-0.699,1.975l-0.898-11.395h3.694c1.099-3.95,2.297-8.508,3.445-13.37
		c-1.548-6.837-4.244-15.649-6.641-22.03l1.698-6.685c0.5,1.215,0.999,2.583,1.498,4.102c1.748-8.964,3.795-21.271,4.943-30.083
		l3.645,4.71c-0.2,0.912-0.5,1.215-1.049,1.215c-1.398,8.812-3.694,21.271-5.592,29.779c1.298,3.95,2.446,7.9,3.245,11.395
		c2.247-10.18,4.394-20.967,5.941-29.779l3.545,5.166c-0.2,0.76-0.599,1.215-1.148,1.215c-2.596,12.915-6.69,30.994-10.285,44.212
		l9.286-0.456c-0.949-5.166-2.047-10.483-3.145-15.042l2.546-3.646c2.347,9.572,4.843,22.486,5.792,30.842L418.289,143.023z
		 M406.506,149.86c-0.1,0.912-0.399,1.52-0.949,1.52c-0.699,12.914-1.847,27.499-3.395,36.464c-0.649-1.368-1.748-2.887-2.497-3.95
		c1.448-8.509,2.546-23.094,3.195-36.92L406.506,149.86z M417.19,178.271c-0.449-7.9-1.797-19.903-3.195-29.171l2.596-2.583
		c1.498,9.116,2.846,20.967,3.395,28.867L417.19,178.271z M446.548,127.982h-9.337c0.799,34.185,2.496,60.013,5.892,62.14h0.05
		c0.799,0,1.448-10.027,1.798-23.549c0.648,1.975,1.797,4.405,2.496,5.621c-0.649,19.903-2.197,28.563-4.344,28.563
		c-0.449,0-0.898-0.304-1.397-1.063c-4.793-4.406-6.69-32.817-7.59-71.712h-8.637v55.303c3.146-1.823,6.54-3.95,9.936-6.077
		l0.299,8.66c-5.592,3.95-11.433,7.9-15.177,10.18c-0.05,1.063-0.299,1.975-0.649,2.278l-1.548-11.091l3.944-2.127V73.742
		l2.146,2.279c6.44-4.254,13.53-10.635,17.524-16.561l3.146,8.052c-0.199,0.608-0.3,0.608-0.998,0.608
		c-1.798,2.279-3.994,4.558-6.441,6.837c-0.1,1.063-0.449,1.823-1.048,2.127c0.05,14.13,0.149,28.107,0.399,41.174h9.536V127.982z
		 M425.479,118.258h8.438c-0.25-12.458-0.399-25.829-0.499-39.806c-2.597,2.127-5.343,4.102-7.938,5.621V118.258z"/>
	<path d="M459.825,129.197v-24.005c-2.247,9.724-5.192,18.84-7.938,23.854c-0.449-1.975-1.348-5.166-1.997-6.837
		c3.146-5.014,6.591-15.193,8.787-25.373h-8.038v-8.508h9.187V59.612l3.944,0.76c-0.05,0.912-0.3,1.671-0.949,1.975v25.98h9.087
		v8.508h-9.087v2.127c2.047,3.646,7.938,15.345,9.337,18.688l-1.848,7.445c-1.397-3.798-4.942-12.155-7.489-17.624v21.726H459.825z
		 M462.721,155.633c-0.05,2.431-0.199,5.014-0.35,7.444c3.096,6.533,6.84,15.346,8.887,20.815l-2.246,6.988
		c-1.647-5.014-4.743-12.61-7.589-18.991c-1.448,9.42-4.244,18.535-9.636,25.98c-0.399-2.279-1.248-5.926-1.848-7.749
		c7.34-10.027,9.236-22.638,9.686-34.488h-9.036v-9.116h9.137V132.54l4.044,0.76c-0.05,1.063-0.3,1.823-0.949,2.127v11.091h9.287
		v9.116H462.721z M454.184,64.322c1.348,5.318,2.596,12.762,3.045,17.624l-2.546,3.343c-0.449-5.014-1.647-12.61-2.945-18.232
		L454.184,64.322z M465.317,82.554c1.048-5.166,2.347-13.37,2.995-18.84l3.445,3.951c-0.15,0.912-0.5,1.215-0.999,1.215
		c-0.799,4.862-2.097,12.002-3.195,16.712L465.317,82.554z M481.942,180.094c-0.149,0.607-0.449,1.063-0.898,1.216
		c-1.997,6.685-6.291,14.889-10.035,19.447c-0.499-1.976-1.498-5.166-2.247-6.837c3.745-4.406,7.938-12.307,9.936-18.992
		L481.942,180.094z M474.004,91.67h6.79c0.45-4.862,0.899-10.635,1.249-15.649h-9.786v-9.116h24.215v9.116h-10.984
		c-0.35,4.558-0.898,10.483-1.498,15.649h10.685v79.917h-20.67V91.67z M491.479,115.675V99.875H477.1v15.801H491.479z
		 M491.479,139.376v-15.801H477.1v15.801H491.479z M491.479,163.381v-16.104H477.1v16.104H491.479z M488.683,175.537
		c2.946,5.47,6.74,13.825,8.737,19.599c-0.3,0.608-0.6,1.216-2.646,5.622c-1.797-5.622-5.592-14.13-8.587-20.056L488.683,175.537z"
		/>
	<path d="M528.321,129.957c0,8.66-2.296,15.649-5.142,15.649c-2.847,0-5.143-6.989-5.143-15.649s2.296-15.649,5.143-15.649
		C526.125,114.308,528.321,121.601,528.321,129.957z"/>
	<path d="M595.37,93.341h-27.659c-1.548,10.027-3.395,19.903-5.542,29.019h11.533V101.09l4.344,0.76
		c-0.05,1.063-0.3,1.823-0.999,2.127v18.384h15.577v50.137c0,11.851-1.997,12.154-10.584,11.851c-0.2-2.734-0.699-6.381-1.148-9.115
		c1.697,0.151,3.295,0.151,4.593,0.151h2.646c0.849-0.151,1.099-0.76,1.099-3.038v-40.11h-12.183v68.521h-3.345v-68.521h-11.184
		v53.936h-3.345v-52.264c-2.247,7.9-4.793,15.193-7.639,21.27c-0.45-2.431-1.398-6.381-2.048-8.66
		c6.241-13.066,11.034-32.361,14.429-53.176h-12.98v-9.875h14.479c1.148-8.052,2.047-16.105,2.796-24.157l4.394,3.495
		c-0.199,1.063-0.549,1.671-1.198,1.671c-0.648,6.229-1.397,12.61-2.246,18.992h26.211V93.341z"/>
	<path d="M609.597,129.197v-24.005c-2.247,9.724-5.192,18.84-7.938,23.854c-0.449-1.975-1.348-5.166-1.997-6.837
		c3.146-5.014,6.591-15.193,8.787-25.373h-8.038v-8.508h9.187V59.612l3.944,0.76c-0.05,0.912-0.3,1.671-0.949,1.975v25.98h9.087
		v8.508h-9.087v2.127c2.047,3.646,7.938,15.345,9.337,18.688l-1.848,7.445c-1.397-3.798-4.942-12.155-7.489-17.624v21.726H609.597z
		 M612.492,155.633c-0.05,2.431-0.199,5.014-0.35,7.444c3.096,6.533,6.84,15.346,8.887,20.815l-2.246,6.988
		c-1.647-5.014-4.743-12.61-7.589-18.991c-1.448,9.42-4.244,18.535-9.636,25.98c-0.399-2.279-1.248-5.926-1.848-7.749
		c7.34-10.027,9.236-22.638,9.686-34.488h-9.036v-9.116h9.137V132.54l4.044,0.76c-0.05,1.063-0.3,1.823-0.949,2.127v11.091h9.287
		v9.116H612.492z M603.955,64.322c1.348,5.318,2.596,12.762,3.045,17.624l-2.546,3.343c-0.449-5.014-1.647-12.61-2.945-18.232
		L603.955,64.322z M615.089,82.554c1.048-5.166,2.347-13.37,2.995-18.84l3.445,3.951c-0.15,0.912-0.5,1.215-0.999,1.215
		c-0.799,4.862-2.097,12.002-3.195,16.712L615.089,82.554z M631.714,180.094c-0.149,0.607-0.449,1.063-0.898,1.216
		c-1.997,6.685-6.291,14.889-10.035,19.447c-0.499-1.976-1.498-5.166-2.247-6.837c3.745-4.406,7.938-12.307,9.936-18.992
		L631.714,180.094z M623.775,91.67h6.79c0.45-4.862,0.899-10.635,1.249-15.649h-9.786v-9.116h24.215v9.116h-10.984
		c-0.35,4.558-0.898,10.483-1.498,15.649h10.685v79.917h-20.67V91.67z M641.25,115.675V99.875h-14.379v15.801H641.25z
		 M641.25,139.376v-15.801h-14.379v15.801H641.25z M641.25,163.381v-16.104h-14.379v16.104H641.25z M638.454,175.537
		c2.946,5.47,6.74,13.825,8.737,19.599c-0.3,0.608-0.6,1.216-2.646,5.622c-1.797-5.622-5.592-14.13-8.587-20.056L638.454,175.537z"
		/>
	<path d="M678.093,129.957c0,8.66-2.296,15.649-5.142,15.649c-2.847,0-5.143-6.989-5.143-15.649s2.296-15.649,5.143-15.649
		C675.896,114.308,678.093,121.601,678.093,129.957z"/>
	<path d="M726.02,93.949c0.85,15.801,1.997,29.475,3.745,41.781c3.844-8.205,8.487-19.751,11.333-28.715l3.346,7.749
		c-0.25,0.76-0.6,1.063-1.148,0.76c-3.146,8.812-8.238,20.359-12.282,28.411c3.195,18.536,7.938,33.577,15.427,47.1
		c-0.898,1.975-1.946,5.773-2.446,8.812c-13.58-26.132-18.473-56.519-21.068-101.794c-2.247,10.483-5.343,21.119-8.888,30.69
		l1.299,0.76c-0.051,0.912-0.35,1.823-0.999,1.975v52.568c4.544-2.583,9.586-5.317,14.429-8.053l0.2,9.116
		c-8.338,5.317-17.325,10.636-22.917,13.826c-0.05,1.215-0.35,1.975-0.648,2.278l-1.598-11.698l7.14-3.646V136.49
		c-2.896,6.837-6.092,13.066-9.387,18.08c-0.399-2.431-1.298-6.685-1.897-8.813c8.139-11.698,15.728-31.297,20.021-51.808h-18.973
		v-9.876h20.32V59.309l4.443,0.912c-0.05,1.063-0.35,1.823-0.998,2.127v21.726h20.669v9.876H726.02z"/>
	<path d="M759.368,129.197v-24.005c-2.247,9.724-5.192,18.84-7.938,23.854c-0.449-1.975-1.348-5.166-1.997-6.837
		c3.146-5.014,6.591-15.193,8.787-25.373h-8.038v-8.508h9.187V59.612l3.944,0.76c-0.05,0.912-0.3,1.671-0.949,1.975v25.98h9.087
		v8.508h-9.087v2.127c2.047,3.646,7.938,15.345,9.337,18.688l-1.848,7.445c-1.397-3.798-4.942-12.155-7.489-17.624v21.726H759.368z
		 M762.264,155.633c-0.05,2.431-0.199,5.014-0.35,7.444c3.096,6.533,6.84,15.346,8.887,20.815l-2.246,6.988
		c-1.647-5.014-4.743-12.61-7.589-18.991c-1.448,9.42-4.244,18.535-9.636,25.98c-0.399-2.279-1.248-5.926-1.848-7.749
		c7.34-10.027,9.236-22.638,9.686-34.488h-9.036v-9.116h9.137V132.54l4.044,0.76c-0.05,1.063-0.3,1.823-0.949,2.127v11.091h9.287
		v9.116H762.264z M753.727,64.322c1.348,5.318,2.596,12.762,3.045,17.624l-2.546,3.343c-0.449-5.014-1.647-12.61-2.945-18.232
		L753.727,64.322z M764.86,82.554c1.048-5.166,2.347-13.37,2.995-18.84l3.445,3.951c-0.15,0.912-0.5,1.215-0.999,1.215
		c-0.799,4.862-2.097,12.002-3.195,16.712L764.86,82.554z M781.485,180.094c-0.149,0.607-0.449,1.063-0.898,1.216
		c-1.997,6.685-6.291,14.889-10.035,19.447c-0.499-1.976-1.498-5.166-2.247-6.837c3.745-4.406,7.938-12.307,9.936-18.992
		L781.485,180.094z M773.547,91.67h6.79c0.45-4.862,0.899-10.635,1.249-15.649H771.8v-9.116h24.215v9.116H785.03
		c-0.35,4.558-0.898,10.483-1.498,15.649h10.685v79.917h-20.67V91.67z M791.021,115.675V99.875h-14.379v15.801H791.021z
		 M791.021,139.376v-15.801h-14.379v15.801H791.021z M791.021,163.381v-16.104h-14.379v16.104H791.021z M788.226,175.537
		c2.946,5.47,6.74,13.825,8.737,19.599c-0.3,0.608-0.6,1.216-2.646,5.622c-1.797-5.622-5.592-14.13-8.587-20.056L788.226,175.537z"
		/>
</g>
</svg>
