<?xml version="1.0" encoding="utf-8"?>
<!-- Generator: Adobe Illustrator 15.1.0, SVG Export Plug-In . SVG Version: 6.00 Build 0)  -->
<!DOCTYPE svg PUBLIC "-//W3C//DTD SVG 1.1//EN" "http://www.w3.org/Graphics/SVG/1.1/DTD/svg11.dtd">
<svg version="1.1" id="レイヤー_1" xmlns="http://www.w3.org/2000/svg" xmlns:xlink="http://www.w3.org/1999/xlink" x="0px"
	 y="0px" width="150px" height="30px" viewBox="0 0 150 30" enable-background="new 0 0 150 30" xml:space="preserve">
<g>
	<path fill="#FFFFFF" d="M58.053,7.602c-0.048,0.098-0.096,0.219-0.216,0.317c-0.313,7.014-0.985,11.421-1.922,13.151
		c-0.961,1.68-2.355,1.753-3.148,1.753c-0.937,0-2.644-0.219-4.302-0.56c0.048-0.487,0-1.218-0.072-1.729
		c1.803,0.414,3.653,0.609,4.206,0.609c0.865,0,1.346-0.22,1.85-1.146c0.721-1.485,1.322-5.576,1.563-11.056h-7.69
		c-1.202,5.82-3.581,10.643-7.931,13.954c-0.288-0.316-0.913-0.779-1.37-1.071c4.158-3.166,6.345-7.331,7.498-12.883h-6.633V7.31
		h6.969C47.142,5.581,47.286,4.022,47.406,2l2.379,0.195c-0.024,0.268-0.24,0.414-0.601,0.438c-0.144,1.778-0.264,3.117-0.528,4.676
		h7.787l0.384-0.146L58.053,7.602z"/>
	<path fill="#FFFFFF" d="M64.813,3.827c2.5,0.804,5.383,2.07,7.162,3.312l-0.913,1.534c-1.73-1.242-4.566-2.533-7.018-3.385
		L64.813,3.827z M64.717,20.704c8.532-2.679,14.204-7.525,17.087-14.271c0.505,0.414,1.058,0.731,1.562,0.999
		c-3.004,6.673-8.868,11.86-17.015,14.612c-0.024,0.22-0.168,0.463-0.336,0.561L64.717,20.704z"/>
	<path fill="#FFFFFF" d="M90.681,12.351V8.503c-1.082,1.559-2.5,3.02-3.821,3.823c-0.217-0.316-0.649-0.828-0.962-1.096
		c1.515-0.804,3.173-2.436,4.23-4.067h-3.869V5.8h4.422V1.197l1.898,0.122c-0.024,0.146-0.145,0.268-0.457,0.316V5.8h4.374v1.364
		h-4.374v0.341c0.985,0.584,3.821,2.459,4.494,2.996l-0.889,1.193c-0.673-0.609-2.38-1.948-3.605-2.825v3.482H90.681z
		 M92.074,16.588c-0.024,0.39-0.096,0.804-0.168,1.193c1.49,1.047,3.292,2.46,4.277,3.337l-1.081,1.12
		c-0.793-0.804-2.283-2.021-3.653-3.045c-0.696,1.511-2.043,2.972-4.638,4.165c-0.192-0.365-0.602-0.95-0.89-1.242
		c3.533-1.607,4.446-3.629,4.662-5.528h-4.35v-1.461h4.398v-2.241l1.946,0.122c-0.024,0.17-0.145,0.292-0.457,0.341v1.778h4.471
		v1.461H92.074z M87.965,1.952c0.648,0.852,1.25,2.045,1.466,2.825l-1.226,0.536c-0.216-0.804-0.793-2.021-1.418-2.922L87.965,1.952
		z M93.324,4.874c0.505-0.828,1.129-2.143,1.441-3.02l1.658,0.633c-0.071,0.146-0.24,0.195-0.48,0.195
		c-0.385,0.779-1.009,1.924-1.538,2.679L93.324,4.874z M101.327,20.509c-0.072,0.098-0.217,0.171-0.433,0.195
		c-0.962,1.071-3.028,2.386-4.831,3.117c-0.24-0.317-0.721-0.828-1.081-1.097c1.803-0.706,3.821-1.973,4.782-3.044L101.327,20.509z
		 M97.506,6.335h3.269c0.216-0.779,0.433-1.705,0.601-2.508h-4.71V2.366h11.655v1.461h-5.287c-0.168,0.73-0.433,1.68-0.721,2.508
		h5.143v12.81h-9.949V6.335z M105.917,10.183V7.65h-6.921v2.533H105.917z M105.917,13.982V11.45h-6.921v2.533H105.917z
		 M105.917,17.83v-2.582h-6.921v2.582H105.917z M104.571,19.778c1.418,0.877,3.244,2.216,4.206,3.142
		c-0.145,0.098-0.289,0.194-1.274,0.901c-0.865-0.901-2.691-2.266-4.133-3.215L104.571,19.778z"/>
</g>
</svg>
