<?xml version="1.0" encoding="utf-8"?>
<!-- Generator: Adobe Illustrator 15.1.0, SVG Export Plug-In . SVG Version: 6.00 Build 0)  -->
<!DOCTYPE svg PUBLIC "-//W3C//DTD SVG 1.1//EN" "http://www.w3.org/Graphics/SVG/1.1/DTD/svg11.dtd">
<svg version="1.1" id="レイヤー_1" xmlns="http://www.w3.org/2000/svg" xmlns:xlink="http://www.w3.org/1999/xlink" x="0px"
	 y="0px" width="150px" height="30px" viewBox="0 0 150 30" enable-background="new 0 0 150 30" xml:space="preserve">
<g>
	<path fill="#FFFFFF" d="M48.473,15.279v6.317h10.091v1.48H36.883v-1.48h9.842v-6.317h-8.718v-1.48h8.718v-3.454h-5.371V8.938
		c-1.349,1.036-2.797,1.999-4.246,2.813c-0.25-0.37-0.7-0.962-1.049-1.308C40.43,8.148,44.727,4.201,46.7,0.87l2.448,0.148
		c-0.05,0.197-0.25,0.321-0.5,0.37c2.423,3.306,6.919,6.884,10.791,8.734c-0.4,0.419-0.825,0.962-1.124,1.456
		c-3.897-2.122-8.368-5.725-10.716-8.981c-1.324,1.999-3.547,4.244-6.12,6.243h12.564v1.505h-5.57v3.454h8.917v1.48H48.473z
		 M42.578,21.176c-0.325-1.258-1.324-3.207-2.348-4.663l1.374-0.518c1.049,1.381,2.098,3.306,2.448,4.564L42.578,21.176z
		 M55.417,16.734c-0.075,0.148-0.274,0.223-0.549,0.197c-0.725,1.283-1.923,3.109-2.873,4.294l-1.249-0.617
		c0.924-1.233,2.148-3.257,2.798-4.688L55.417,16.734z"/>
	<path fill="#FFFFFF" d="M82.393,7.531h-17.11v2.023c0,4.244-0.35,10.289-2.973,14.385c-0.3-0.271-1.049-0.716-1.449-0.863
		c2.523-3.948,2.748-9.5,2.748-13.521V2.251h18.784V7.531z M80.694,3.608H65.283v2.566h15.412V3.608z M82.793,16.858v5.478
		c0,1.529-0.824,1.554-4.021,1.554c-0.075-0.395-0.275-0.863-0.45-1.233c0.7,0.024,1.324,0.05,1.799,0.05
		c0.999,0,1.099,0,1.099-0.37v-4.244h-6.02v2.097l2.748-0.099c-0.325-0.419-0.675-0.839-1.049-1.209l1.023-0.395
		c1.049,1.012,2.073,2.468,2.447,3.479l-1.073,0.443c-0.149-0.37-0.375-0.813-0.624-1.258c-3.348,0.197-6.745,0.37-8.943,0.469
		c-0.025,0.197-0.15,0.296-0.325,0.32l-0.475-1.579c1.274-0.024,2.922-0.073,4.696-0.123v-2.146H67.93v5.848h-1.573v-7.081h7.269
		v-1.382h-6.27v-4.268h6.27V9.826c-2.148,0.148-4.371,0.271-6.444,0.321c-0.05-0.296-0.225-0.79-0.375-1.11
		c4.696-0.173,10.391-0.592,13.389-1.234l1.224,1.086c-0.05,0.049-0.125,0.074-0.226,0.074c-0.074,0-0.149,0-0.249-0.024
		c-1.499,0.296-3.522,0.542-5.745,0.74v1.53h6.469v4.268h-6.469v1.382H82.793z M68.905,14.366h4.721v-2.048h-4.721V14.366z
		 M80.07,12.318h-4.871v2.048h4.871V12.318z"/>
	<path fill="#FFFFFF" d="M90.936,12.318V8.42c-1.124,1.579-2.599,3.059-3.972,3.874c-0.226-0.321-0.675-0.839-1-1.11
		c1.574-0.814,3.298-2.467,4.396-4.121h-4.021V5.681h4.597V1.018l1.973,0.124c-0.024,0.148-0.149,0.271-0.475,0.321v4.219h4.546
		v1.381h-4.546v0.346C93.458,8,96.405,9.9,97.104,10.443l-0.924,1.209c-0.699-0.617-2.473-1.974-3.747-2.862v3.528H90.936z
		 M92.384,16.611c-0.025,0.395-0.1,0.814-0.175,1.209c1.549,1.061,3.422,2.492,4.446,3.38l-1.124,1.136
		c-0.824-0.814-2.373-2.048-3.797-3.085c-0.725,1.53-2.123,3.011-4.821,4.22c-0.199-0.37-0.624-0.963-0.924-1.259
		c3.672-1.628,4.621-3.676,4.846-5.601h-4.521v-1.48h4.57v-2.27l2.023,0.124c-0.024,0.173-0.149,0.296-0.475,0.345v1.801h4.646v1.48
		H92.384z M88.112,1.783c0.675,0.863,1.299,2.072,1.523,2.862l-1.273,0.543c-0.225-0.814-0.824-2.048-1.474-2.961L88.112,1.783z
		 M93.683,4.743c0.524-0.839,1.174-2.171,1.499-3.06l1.724,0.642c-0.075,0.148-0.25,0.198-0.5,0.198
		c-0.399,0.79-1.049,1.949-1.599,2.714L93.683,4.743z M102.001,20.584c-0.075,0.099-0.226,0.173-0.45,0.197
		c-0.999,1.086-3.147,2.418-5.021,3.158c-0.25-0.321-0.749-0.839-1.124-1.11c1.873-0.716,3.972-1.999,4.971-3.084L102.001,20.584z
		 M98.029,6.224h3.396c0.226-0.79,0.45-1.727,0.625-2.541h-4.896v-1.48h12.114v1.48h-5.495c-0.175,0.74-0.45,1.702-0.75,2.541h5.346
		v12.979H98.029V6.224z M106.771,10.122V7.556h-7.193v2.566H106.771z M106.771,13.971v-2.566h-7.193v2.566H106.771z M106.771,17.869
		v-2.615h-7.193v2.615H106.771z M105.373,19.844c1.474,0.888,3.372,2.245,4.371,3.183c-0.15,0.099-0.3,0.197-1.324,0.913
		c-0.899-0.913-2.798-2.295-4.296-3.257L105.373,19.844z"/>
</g>
</svg>
