<?xml version="1.0" encoding="utf-8"?>
<!-- Generator: Adobe Illustrator 15.1.0, SVG Export Plug-In . SVG Version: 6.00 Build 0)  -->
<!DOCTYPE svg PUBLIC "-//W3C//DTD SVG 1.1//EN" "http://www.w3.org/Graphics/SVG/1.1/DTD/svg11.dtd">
<svg version="1.1" id="レイヤー_1" xmlns="http://www.w3.org/2000/svg" xmlns:xlink="http://www.w3.org/1999/xlink" x="0px"
	 y="0px" width="150px" height="20px" viewBox="0 0 150 20" enable-background="new 0 0 150 20" xml:space="preserve">
<g>
	<path fill="#FFFFFF" d="M4.083,9.335c0.726-0.764,2.235-2.445,2.78-3.027C7.111,6.06,7.359,5.945,7.608,5.945
		c0.258,0,0.516,0.134,0.773,0.363c1.232,1.127,3.219,3.333,4.662,5.206l-0.573,0.525C11.113,10.158,9.117,7.894,8.047,6.9
		C7.885,6.747,7.761,6.661,7.636,6.661c-0.124,0-0.239,0.096-0.392,0.239C6.796,7.387,5.401,8.992,4.761,9.68
		c0.009,0.019,0.009,0.047,0.009,0.066c0,0.076-0.038,0.153-0.095,0.2L4.083,9.335z M11.323,4.493c0.583,0,1.061,0.478,1.061,1.07
		s-0.478,1.07-1.061,1.07c-0.602,0-1.079-0.478-1.079-1.07C10.244,4.952,10.741,4.493,11.323,4.493z M12.068,5.563
		c0-0.42-0.334-0.764-0.745-0.764c-0.42,0-0.764,0.344-0.764,0.764c0,0.411,0.344,0.754,0.764,0.754
		C11.753,6.317,12.068,5.955,12.068,5.563z"/>
	<path fill="#FFFFFF" d="M15.488,7.177c0.287,0.583,0.602,1.5,0.716,2.054L15.67,9.375c-0.115-0.555-0.411-1.424-0.697-2.035
		L15.488,7.177z M21.191,7.244c-0.019,0.086-0.115,0.105-0.201,0.095c-0.745,2.789-2.149,4.499-4.461,5.435
		c-0.076-0.115-0.248-0.335-0.372-0.439c2.283-0.898,3.591-2.464,4.289-5.311L21.191,7.244z M17.81,6.719
		c0.201,0.64,0.382,1.557,0.449,2.168l-0.563,0.104c-0.057-0.611-0.239-1.49-0.449-2.149L17.81,6.719z"/>
	<path fill="#FFFFFF" d="M30.352,9.699c-0.975-0.525-2.312-1.146-3.353-1.557v4.775h-0.716v-8.3l0.965,0.057
		c-0.01,0.105-0.086,0.172-0.249,0.201v2.789l0.144-0.2c1.118,0.411,2.598,1.07,3.591,1.595L30.352,9.699z"/>
	<path fill="#FFFFFF" d="M35.51,8.811c-0.43,1.118-1.06,2.101-1.796,2.827l-0.554-0.363c0.716-0.668,1.337-1.585,1.729-2.693
		L35.51,8.811z M37.554,7.339v4.518c0,1.041-0.735,1.041-2.264,1.041c-0.038-0.172-0.115-0.449-0.21-0.64
		c0.277,0.009,0.583,0.009,0.84,0.009h0.554c0.268,0,0.392-0.172,0.392-0.401V7.339h-3.248V6.7h3.248V4.713l0.907,0.047
		c-0.009,0.096-0.076,0.163-0.22,0.182V6.7h3.229v0.64H37.554z M39.264,8.514c0.697,0.774,1.5,1.892,2.016,2.78l-0.611,0.354
		c-0.468-0.878-1.309-2.101-1.949-2.837L39.264,8.514z M39.149,4.627c0.43,0.382,0.917,0.964,1.194,1.395L39.98,6.298
		c-0.277-0.42-0.783-1.041-1.194-1.385L39.149,4.627z M40.524,4.197c0.439,0.392,0.937,0.965,1.204,1.385l-0.363,0.287
		c-0.277-0.42-0.793-1.022-1.194-1.385L40.524,4.197z"/>
	<path fill="#FFFFFF" d="M49.456,9.699c-0.975-0.525-2.312-1.146-3.353-1.557v4.775h-0.716v-8.3l0.965,0.057
		c-0.01,0.105-0.086,0.172-0.249,0.201v2.789l0.144-0.2c1.118,0.411,2.598,1.07,3.591,1.595L49.456,9.699z"/>
	<path fill="#FFFFFF" d="M54.461,6.117c-0.009,0.086-0.095,0.144-0.22,0.163c-0.057,2.569-0.268,4.909-1.738,6.619
		c-0.153-0.115-0.382-0.258-0.573-0.363c1.423-1.546,1.595-3.935,1.624-6.504L54.461,6.117z M56.936,11.618
		c1.595-0.773,2.627-2.167,3.181-3.839c0.144,0.124,0.43,0.287,0.592,0.373c-0.678,1.929-1.863,3.353-3.897,4.317
		c-0.029,0.076-0.096,0.152-0.163,0.19l-0.497-0.63l0.105-0.144V4.875l0.888,0.048c-0.009,0.086-0.076,0.163-0.21,0.182V11.618z"/>
	<path fill="#FFFFFF" d="M66.851,8.782c0,0.545-0.439,0.984-0.984,0.984s-0.984-0.439-0.984-0.984c0-0.544,0.439-0.984,0.984-0.984
		C66.43,7.798,66.851,8.256,66.851,8.782z"/>
	<path fill="#FFFFFF" d="M74.454,9.603c-0.047-0.152-0.124-0.334-0.22-0.525l-1.041,0.058v4.087h-0.583V9.164
		c-0.544,0.02-1.041,0.048-1.433,0.058c-0.009,0.076-0.066,0.105-0.133,0.124l-0.172-0.716h0.707c0.21-0.248,0.439-0.535,0.659-0.84
		c-0.296-0.43-0.812-0.984-1.271-1.385l0.325-0.42c0.096,0.077,0.191,0.163,0.287,0.258c0.334-0.564,0.726-1.337,0.946-1.892
		l0.697,0.296c-0.038,0.057-0.096,0.076-0.201,0.076c-0.268,0.554-0.707,1.337-1.07,1.872c0.249,0.249,0.468,0.497,0.621,0.717
		c0.43-0.64,0.84-1.318,1.137-1.873l0.678,0.325c-0.039,0.048-0.115,0.077-0.22,0.077c-0.497,0.812-1.28,1.949-1.968,2.78
		l1.776-0.029c-0.181-0.325-0.392-0.659-0.602-0.946l0.487-0.229c0.449,0.602,0.926,1.414,1.108,1.939L74.454,9.603z M72.2,10.033
		c-0.019,0.058-0.077,0.096-0.182,0.096c-0.134,0.813-0.354,1.729-0.649,2.292c-0.125-0.086-0.334-0.182-0.478-0.249
		c0.277-0.534,0.487-1.451,0.611-2.32L72.2,10.033z M74.244,11.819c-0.086-0.497-0.344-1.251-0.611-1.833l0.497-0.163
		c0.287,0.573,0.544,1.318,0.65,1.815L74.244,11.819z M79.86,8.658h-1.786c0.153,2.149,0.478,3.773,1.127,3.906h0.01
		c0.153,0,0.277-0.63,0.344-1.48c0.125,0.125,0.345,0.277,0.478,0.354c-0.124,1.252-0.42,1.796-0.831,1.796
		c-0.086,0-0.172-0.019-0.267-0.066c-0.917-0.277-1.28-2.063-1.452-4.508H75.83v3.476c0.602-0.114,1.251-0.248,1.901-0.382
		l0.058,0.545c-1.07,0.248-2.188,0.496-2.904,0.64c-0.01,0.066-0.058,0.124-0.125,0.144l-0.296-0.697l0.754-0.134V5.248l0.411,0.144
		c1.232-0.268,2.588-0.669,3.353-1.042l0.602,0.506c-0.038,0.038-0.058,0.038-0.191,0.038c-0.344,0.144-0.764,0.287-1.232,0.43
		c-0.019,0.067-0.086,0.114-0.2,0.133c0.01,0.889,0.028,1.768,0.076,2.589h1.824V8.658z M75.83,8.046h1.615
		c-0.048-0.783-0.077-1.624-0.096-2.502c-0.497,0.133-1.022,0.258-1.519,0.353V8.046z"/>
	<path fill="#FFFFFF" d="M82.401,8.734V7.225c-0.43,0.611-0.993,1.184-1.519,1.5c-0.086-0.124-0.258-0.325-0.382-0.43
		c0.602-0.315,1.261-0.956,1.681-1.595h-1.537V6.165h1.757V4.359l0.755,0.048c-0.01,0.057-0.057,0.105-0.182,0.124v1.633h1.739V6.7
		h-1.739v0.134c0.392,0.229,1.52,0.964,1.786,1.175l-0.353,0.468c-0.268-0.239-0.946-0.764-1.434-1.108v1.366H82.401z
		 M82.956,10.396c-0.01,0.153-0.038,0.315-0.067,0.468c0.593,0.411,1.309,0.964,1.7,1.308l-0.43,0.439
		c-0.315-0.314-0.907-0.792-1.452-1.193c-0.276,0.592-0.812,1.165-1.843,1.633c-0.077-0.143-0.239-0.372-0.354-0.487
		c1.404-0.63,1.767-1.423,1.853-2.167h-1.729V9.823h1.748V8.944l0.773,0.048c-0.01,0.067-0.057,0.115-0.182,0.134v0.697h1.777v0.573
		H82.956z M81.322,4.655c0.258,0.334,0.497,0.802,0.583,1.108l-0.487,0.21c-0.086-0.315-0.315-0.793-0.563-1.146L81.322,4.655z
		 M83.452,5.802c0.201-0.325,0.449-0.841,0.573-1.185l0.659,0.249c-0.028,0.057-0.096,0.076-0.19,0.076
		c-0.153,0.306-0.401,0.755-0.611,1.051L83.452,5.802z M86.634,11.934c-0.029,0.038-0.086,0.066-0.173,0.076
		c-0.382,0.421-1.203,0.937-1.92,1.223c-0.095-0.124-0.286-0.324-0.43-0.43c0.717-0.277,1.52-0.773,1.901-1.194L86.634,11.934z
		 M85.114,6.375h1.3c0.086-0.306,0.172-0.668,0.238-0.983H84.78V4.818h4.633v0.573h-2.102c-0.066,0.286-0.172,0.659-0.286,0.983
		h2.044v5.024h-3.955V6.375z M88.458,7.884V6.891h-2.751v0.993H88.458z M88.458,9.375V8.381h-2.751v0.994H88.458z M88.458,10.883
		V9.871h-2.751v1.013H88.458z M87.923,11.647c0.563,0.344,1.29,0.869,1.672,1.231c-0.058,0.038-0.115,0.077-0.507,0.354
		c-0.344-0.354-1.069-0.888-1.643-1.261L87.923,11.647z"/>
	<path fill="#FFFFFF" d="M95.507,8.782c0,0.545-0.439,0.984-0.983,0.984c-0.545,0-0.984-0.439-0.984-0.984
		c0-0.544,0.439-0.984,0.984-0.984C95.087,7.798,95.507,8.256,95.507,8.782z"/>
	<path fill="#FFFFFF" d="M108.335,6.48h-5.292c-0.296,0.63-0.649,1.251-1.06,1.824h2.206V6.967l0.831,0.048
		c-0.01,0.067-0.058,0.115-0.191,0.134v1.156h2.98v3.152c0,0.745-0.382,0.764-2.025,0.745c-0.038-0.172-0.133-0.401-0.22-0.573
		c0.325,0.01,0.631,0.01,0.879,0.01h0.507c0.162-0.01,0.21-0.048,0.21-0.191V8.925h-2.331v4.307h-0.64V8.925h-2.14v3.39h-0.64V9.03
		c-0.43,0.497-0.917,0.956-1.462,1.338c-0.086-0.153-0.268-0.401-0.392-0.545c1.194-0.821,2.111-2.034,2.761-3.343h-2.483V5.859
		h2.77c0.22-0.506,0.392-1.013,0.535-1.519l0.841,0.22c-0.038,0.067-0.105,0.105-0.229,0.105c-0.124,0.392-0.268,0.792-0.43,1.194
		h5.015V6.48z"/>
	<path fill="#FFFFFF" d="M111.057,8.734V7.225c-0.43,0.611-0.993,1.184-1.519,1.5c-0.086-0.124-0.258-0.325-0.382-0.43
		c0.602-0.315,1.261-0.956,1.682-1.595H109.3V6.165h1.757V4.359l0.755,0.048c-0.01,0.057-0.058,0.105-0.182,0.124v1.633h1.739V6.7
		h-1.739v0.134c0.392,0.229,1.52,0.964,1.786,1.175l-0.353,0.468c-0.268-0.239-0.946-0.764-1.434-1.108v1.366H111.057z
		 M111.611,10.396c-0.01,0.153-0.038,0.315-0.067,0.468c0.593,0.411,1.309,0.964,1.7,1.308l-0.43,0.439
		c-0.315-0.314-0.907-0.792-1.452-1.193c-0.276,0.592-0.812,1.165-1.843,1.633c-0.077-0.143-0.239-0.372-0.354-0.487
		c1.404-0.63,1.767-1.423,1.853-2.167h-1.729V9.823h1.748V8.944l0.773,0.048c-0.01,0.067-0.058,0.115-0.182,0.134v0.697h1.777v0.573
		H111.611z M109.978,4.655c0.258,0.334,0.497,0.802,0.583,1.108l-0.487,0.21c-0.086-0.315-0.315-0.793-0.563-1.146L109.978,4.655z
		 M112.107,5.802c0.201-0.325,0.449-0.841,0.573-1.185l0.659,0.249c-0.028,0.057-0.096,0.076-0.19,0.076
		c-0.153,0.306-0.401,0.755-0.611,1.051L112.107,5.802z M115.289,11.934c-0.029,0.038-0.086,0.066-0.172,0.076
		c-0.383,0.421-1.204,0.937-1.921,1.223c-0.095-0.124-0.286-0.324-0.43-0.43c0.717-0.277,1.52-0.773,1.901-1.194L115.289,11.934z
		 M113.77,6.375h1.3c0.086-0.306,0.172-0.668,0.238-0.983h-1.872V4.818h4.633v0.573h-2.102c-0.066,0.286-0.172,0.659-0.286,0.983
		h2.044v5.024h-3.955V6.375z M117.113,7.884V6.891h-2.751v0.993H117.113z M117.113,9.375V8.381h-2.751v0.994H117.113z
		 M117.113,10.883V9.871h-2.751v1.013H117.113z M116.578,11.647c0.563,0.344,1.289,0.869,1.672,1.231
		c-0.058,0.038-0.115,0.077-0.507,0.354c-0.344-0.354-1.069-0.888-1.643-1.261L116.578,11.647z"/>
	<path fill="#FFFFFF" d="M124.162,8.782c0,0.545-0.439,0.984-0.983,0.984c-0.545,0-0.984-0.439-0.984-0.984
		c0-0.544,0.439-0.984,0.984-0.984C123.742,7.798,124.162,8.256,124.162,8.782z"/>
	<path fill="#FFFFFF" d="M133.332,6.518c0.162,0.993,0.382,1.853,0.716,2.627c0.736-0.516,1.624-1.242,2.169-1.806l0.64,0.487
		c-0.048,0.048-0.114,0.067-0.22,0.048c-0.602,0.554-1.576,1.28-2.35,1.786c0.611,1.165,1.519,2.111,2.951,2.96
		c-0.172,0.124-0.372,0.363-0.468,0.554c-2.598-1.643-3.534-3.552-4.031-6.399c-0.43,0.659-1.021,1.328-1.7,1.93l0.249,0.048
		c-0.01,0.057-0.067,0.114-0.191,0.124v3.304c0.869-0.162,1.834-0.334,2.761-0.506l0.038,0.573
		c-1.596,0.334-3.314,0.668-4.385,0.869c-0.009,0.076-0.066,0.124-0.124,0.144l-0.306-0.736l1.366-0.229V9.193
		c-0.554,0.43-1.165,0.821-1.796,1.137c-0.076-0.153-0.248-0.421-0.363-0.555c1.558-0.735,3.009-1.967,3.831-3.257h-3.63V5.897
		h3.888V4.34l0.85,0.057c-0.01,0.067-0.066,0.115-0.19,0.134v1.366h3.954v0.621H133.332z"/>
	<path fill="#FFFFFF" d="M139.712,8.734V7.225c-0.43,0.611-0.993,1.184-1.519,1.5c-0.086-0.124-0.258-0.325-0.382-0.43
		c0.602-0.315,1.261-0.956,1.681-1.595h-1.537V6.165h1.757V4.359l0.755,0.048c-0.01,0.057-0.057,0.105-0.182,0.124v1.633h1.739V6.7
		h-1.739v0.134c0.392,0.229,1.52,0.964,1.786,1.175l-0.353,0.468c-0.268-0.239-0.946-0.764-1.434-1.108v1.366H139.712z
		 M140.267,10.396c-0.01,0.153-0.038,0.315-0.067,0.468c0.593,0.411,1.309,0.964,1.7,1.308l-0.43,0.439
		c-0.315-0.314-0.907-0.792-1.452-1.193c-0.276,0.592-0.812,1.165-1.843,1.633c-0.077-0.143-0.239-0.372-0.354-0.487
		c1.404-0.63,1.767-1.423,1.853-2.167h-1.729V9.823h1.748V8.944l0.773,0.048c-0.01,0.067-0.057,0.115-0.182,0.134v0.697h1.777v0.573
		H140.267z M138.633,4.655c0.258,0.334,0.497,0.802,0.583,1.108l-0.487,0.21c-0.086-0.315-0.315-0.793-0.563-1.146L138.633,4.655z
		 M140.763,5.802c0.201-0.325,0.449-0.841,0.573-1.185l0.659,0.249c-0.028,0.057-0.096,0.076-0.19,0.076
		c-0.153,0.306-0.401,0.755-0.611,1.051L140.763,5.802z M143.944,11.934c-0.029,0.038-0.086,0.066-0.173,0.076
		c-0.382,0.421-1.203,0.937-1.92,1.223c-0.095-0.124-0.286-0.324-0.43-0.43c0.717-0.277,1.52-0.773,1.901-1.194L143.944,11.934z
		 M142.425,6.375h1.3c0.086-0.306,0.172-0.668,0.238-0.983h-1.872V4.818h4.633v0.573h-2.102c-0.066,0.286-0.172,0.659-0.286,0.983
		h2.044v5.024h-3.955V6.375z M145.769,7.884V6.891h-2.751v0.993H145.769z M145.769,9.375V8.381h-2.751v0.994H145.769z
		 M145.769,10.883V9.871h-2.751v1.013H145.769z M145.233,11.647c0.563,0.344,1.29,0.869,1.672,1.231
		c-0.058,0.038-0.115,0.077-0.507,0.354c-0.344-0.354-1.069-0.888-1.643-1.261L145.233,11.647z"/>
</g>
</svg>
