<?xml version="1.0" encoding="utf-8"?>
<!-- Generator: Adobe Illustrator 15.1.0, SVG Export Plug-In . SVG Version: 6.00 Build 0)  -->
<!DOCTYPE svg PUBLIC "-//W3C//DTD SVG 1.1//EN" "http://www.w3.org/Graphics/SVG/1.1/DTD/svg11.dtd">
<svg version="1.1" id="レイヤー_1" xmlns="http://www.w3.org/2000/svg" xmlns:xlink="http://www.w3.org/1999/xlink" x="0px"
	 y="0px" width="200px" height="30px" viewBox="0 0 200 30" enable-background="new 0 0 200 30" xml:space="preserve">
<g>
	<path fill="#FFFFFF" d="M0.426,14.806c1.012-1.065,3.117-3.41,3.876-4.223c0.346-0.346,0.692-0.506,1.039-0.506
		c0.359,0,0.719,0.187,1.079,0.506c1.718,1.572,4.489,4.649,6.5,7.26l-0.799,0.732c-1.892-2.624-4.676-5.781-6.167-7.167
		c-0.227-0.213-0.4-0.333-0.573-0.333c-0.173,0-0.333,0.133-0.546,0.333c-0.626,0.679-2.571,2.917-3.463,3.876
		c0.013,0.026,0.013,0.066,0.013,0.093c0,0.106-0.053,0.213-0.133,0.279L0.426,14.806z M10.523,8.053
		c0.813,0,1.479,0.666,1.479,1.492c0,0.826-0.666,1.492-1.479,1.492c-0.839,0-1.505-0.666-1.505-1.492
		C9.018,8.692,9.711,8.053,10.523,8.053z M11.563,9.544c0-0.586-0.466-1.065-1.039-1.065c-0.586,0-1.065,0.479-1.065,1.065
		c0,0.573,0.479,1.053,1.065,1.053C11.123,10.597,11.563,10.091,11.563,9.544z"/>
	<path fill="#FFFFFF" d="M16.332,11.796c0.399,0.813,0.839,2.091,0.999,2.864l-0.746,0.2c-0.16-0.773-0.573-1.985-0.973-2.837
		L16.332,11.796z M24.284,11.889c-0.026,0.12-0.16,0.146-0.279,0.133c-1.039,3.89-2.998,6.274-6.221,7.579
		c-0.106-0.159-0.346-0.466-0.52-0.612c3.184-1.252,5.009-3.437,5.981-7.407L24.284,11.889z M19.568,11.156
		c0.28,0.893,0.533,2.171,0.626,3.024l-0.786,0.146c-0.08-0.853-0.333-2.078-0.626-2.997L19.568,11.156z"/>
	<path fill="#FFFFFF" d="M37.059,15.313c-1.359-0.732-3.224-1.599-4.676-2.171v6.661h-0.999V8.226l1.346,0.08
		c-0.014,0.146-0.12,0.24-0.347,0.28v3.89l0.2-0.28c1.559,0.573,3.624,1.492,5.009,2.225L37.059,15.313z"/>
	<path fill="#FFFFFF" d="M44.252,14.074c-0.6,1.559-1.479,2.93-2.504,3.943l-0.773-0.506c0.999-0.933,1.865-2.211,2.411-3.757
		L44.252,14.074z M47.103,12.022v6.301c0,1.452-1.026,1.452-3.157,1.452c-0.053-0.24-0.16-0.626-0.293-0.893
		c0.386,0.013,0.813,0.013,1.172,0.013h0.772c0.373,0,0.546-0.239,0.546-0.56v-6.313h-4.529V11.13h4.529V8.359l1.265,0.067
		c-0.013,0.133-0.106,0.227-0.306,0.253v2.451h4.502v0.893H47.103z M49.487,13.661c0.973,1.079,2.091,2.637,2.811,3.876
		l-0.853,0.493c-0.652-1.226-1.825-2.931-2.717-3.957L49.487,13.661z M49.327,8.239c0.599,0.533,1.279,1.345,1.665,1.945
		l-0.506,0.386c-0.386-0.586-1.092-1.452-1.665-1.932L49.327,8.239z M51.245,7.64c0.613,0.546,1.306,1.346,1.679,1.932l-0.506,0.399
		c-0.386-0.586-1.105-1.425-1.665-1.931L51.245,7.64z"/>
	<path fill="#FFFFFF" d="M63.7,15.313c-1.359-0.732-3.224-1.599-4.676-2.171v6.661h-0.999V8.226l1.346,0.08
		c-0.014,0.146-0.12,0.24-0.347,0.28v3.89l0.2-0.28c1.559,0.573,3.624,1.492,5.009,2.225L63.7,15.313z"/>
	<path fill="#FFFFFF" d="M70.68,10.317c-0.013,0.12-0.133,0.2-0.306,0.226c-0.08,3.583-0.373,6.847-2.425,9.232
		c-0.213-0.16-0.533-0.36-0.799-0.507c1.984-2.157,2.225-5.488,2.264-9.071L70.68,10.317z M74.13,17.99
		c2.225-1.079,3.663-3.024,4.436-5.355c0.2,0.173,0.599,0.399,0.826,0.52c-0.946,2.69-2.598,4.675-5.435,6.021
		c-0.04,0.106-0.133,0.213-0.227,0.267l-0.692-0.88l0.146-0.199V8.585l1.239,0.067c-0.013,0.12-0.106,0.226-0.293,0.253V17.99z"/>
	<path fill="#FFFFFF" d="M87.958,14.034c0,0.759-0.613,1.372-1.372,1.372s-1.372-0.613-1.372-1.372s0.613-1.372,1.372-1.372
		C87.371,12.662,87.958,13.301,87.958,14.034z"/>
	<path fill="#FFFFFF" d="M98.561,15.179c-0.066-0.213-0.173-0.466-0.306-0.732l-1.452,0.08v5.701H95.99v-5.661
		c-0.759,0.027-1.452,0.067-1.998,0.08c-0.014,0.106-0.093,0.146-0.187,0.173l-0.24-0.999h0.986
		c0.293-0.347,0.613-0.746,0.919-1.172c-0.413-0.6-1.132-1.372-1.771-1.932l0.453-0.586c0.133,0.106,0.267,0.227,0.4,0.359
		c0.466-0.786,1.012-1.865,1.318-2.637l0.973,0.413c-0.053,0.08-0.133,0.107-0.28,0.107c-0.373,0.772-0.986,1.865-1.492,2.611
		c0.346,0.346,0.652,0.692,0.866,0.999c0.599-0.893,1.172-1.838,1.585-2.611l0.946,0.453c-0.053,0.067-0.16,0.106-0.306,0.106
		c-0.693,1.132-1.785,2.718-2.744,3.876l2.478-0.04c-0.253-0.453-0.546-0.919-0.839-1.319l0.68-0.32
		c0.626,0.839,1.292,1.972,1.545,2.704L98.561,15.179z M95.417,15.779c-0.027,0.08-0.106,0.133-0.253,0.133
		c-0.187,1.132-0.493,2.411-0.906,3.197c-0.173-0.12-0.466-0.254-0.666-0.347c0.386-0.746,0.68-2.024,0.853-3.237L95.417,15.779z
		 M98.268,18.27c-0.12-0.692-0.479-1.745-0.853-2.557l0.693-0.227c0.399,0.799,0.759,1.838,0.906,2.531L98.268,18.27z
		 M106.101,13.86h-2.491c0.213,2.997,0.666,5.262,1.572,5.448h0.013c0.213,0,0.387-0.879,0.479-2.064
		c0.174,0.173,0.479,0.387,0.666,0.493c-0.173,1.745-0.586,2.504-1.158,2.504c-0.12,0-0.24-0.026-0.373-0.093
		c-1.279-0.387-1.785-2.878-2.025-6.288h-2.304v4.849c0.839-0.159,1.745-0.346,2.651-0.532l0.08,0.759
		c-1.492,0.347-3.051,0.693-4.05,0.893c-0.013,0.094-0.08,0.174-0.173,0.2l-0.413-0.973l1.052-0.187V9.105l0.573,0.2
		c1.719-0.373,3.61-0.932,4.676-1.452l0.839,0.706c-0.053,0.053-0.08,0.053-0.267,0.053c-0.479,0.2-1.065,0.399-1.718,0.599
		c-0.027,0.093-0.12,0.16-0.28,0.187c0.014,1.239,0.04,2.464,0.106,3.61h2.545V13.86z M100.479,13.008h2.251
		c-0.067-1.092-0.107-2.264-0.134-3.49c-0.692,0.187-1.425,0.359-2.118,0.493V13.008z"/>
	<path fill="#FFFFFF" d="M109.644,13.967v-2.105c-0.6,0.853-1.386,1.652-2.118,2.091c-0.12-0.173-0.359-0.453-0.533-0.599
		c0.84-0.439,1.759-1.332,2.345-2.225h-2.145v-0.746h2.451V7.866l1.053,0.066c-0.014,0.08-0.08,0.146-0.254,0.173v2.278h2.425v0.746
		h-2.425v0.187c0.547,0.319,2.118,1.345,2.491,1.638l-0.492,0.653c-0.373-0.333-1.319-1.065-1.999-1.545v1.905H109.644z
		 M110.416,16.285c-0.014,0.213-0.053,0.439-0.093,0.652c0.825,0.573,1.824,1.346,2.371,1.825l-0.6,0.612
		c-0.439-0.439-1.266-1.105-2.025-1.665c-0.386,0.826-1.132,1.626-2.57,2.278c-0.106-0.2-0.333-0.52-0.493-0.68
		c1.958-0.879,2.465-1.984,2.584-3.023h-2.411v-0.799h2.438V14.26l1.079,0.066c-0.014,0.093-0.08,0.16-0.254,0.187v0.973h2.479
		v0.799H110.416z M108.139,8.279c0.359,0.466,0.692,1.119,0.813,1.545l-0.68,0.293c-0.12-0.439-0.439-1.105-0.786-1.598
		L108.139,8.279z M111.108,9.877c0.28-0.453,0.627-1.172,0.8-1.652l0.919,0.347c-0.04,0.08-0.133,0.106-0.267,0.106
		c-0.213,0.426-0.56,1.052-0.853,1.465L111.108,9.877z M115.545,18.43c-0.04,0.054-0.12,0.093-0.24,0.106
		c-0.532,0.586-1.678,1.306-2.678,1.705c-0.133-0.173-0.399-0.453-0.599-0.6c0.999-0.386,2.118-1.079,2.65-1.665L115.545,18.43z
		 M113.427,10.677h1.812c0.12-0.426,0.24-0.932,0.333-1.372h-2.61V8.505h6.46v0.799h-2.931c-0.093,0.4-0.239,0.919-0.399,1.372
		h2.851v7.007h-5.515V10.677z M118.089,12.782v-1.386h-3.836v1.386H118.089z M118.089,14.86v-1.386h-3.836v1.386H118.089z
		 M118.089,16.965v-1.413h-3.836v1.413H118.089z M117.343,18.03c0.786,0.479,1.799,1.212,2.331,1.718
		c-0.079,0.054-0.159,0.107-0.706,0.493c-0.479-0.493-1.491-1.238-2.291-1.758L117.343,18.03z"/>
	<path fill="#FFFFFF" d="M127.92,14.034c0,0.759-0.612,1.372-1.372,1.372c-0.759,0-1.372-0.613-1.372-1.372s0.613-1.372,1.372-1.372
		C127.334,12.662,127.92,13.301,127.92,14.034z"/>
	<path fill="#FFFFFF" d="M145.811,10.823h-7.38c-0.413,0.879-0.905,1.745-1.479,2.544h3.077v-1.865l1.159,0.066
		c-0.014,0.093-0.08,0.16-0.267,0.187v1.612h4.156v4.396c0,1.039-0.533,1.065-2.824,1.039c-0.054-0.24-0.187-0.56-0.307-0.8
		c0.453,0.014,0.88,0.014,1.226,0.014h0.706c0.227-0.014,0.293-0.066,0.293-0.267v-3.517h-3.25v6.008h-0.893v-6.008h-2.984v4.729
		h-0.892V14.38c-0.6,0.693-1.279,1.333-2.038,1.865c-0.12-0.213-0.373-0.56-0.547-0.759c1.665-1.146,2.944-2.837,3.85-4.663h-3.463
		V9.958h3.863c0.306-0.706,0.546-1.412,0.746-2.118l1.172,0.307c-0.054,0.093-0.146,0.146-0.319,0.146
		c-0.174,0.546-0.373,1.105-0.6,1.665h6.993V10.823z"/>
	<path fill="#FFFFFF" d="M149.607,13.967v-2.105c-0.6,0.853-1.386,1.652-2.118,2.091c-0.12-0.173-0.359-0.453-0.532-0.599
		c0.839-0.439,1.758-1.332,2.344-2.225h-2.145v-0.746h2.451V7.866l1.053,0.066c-0.014,0.08-0.08,0.146-0.254,0.173v2.278h2.425
		v0.746h-2.425v0.187c0.547,0.319,2.118,1.345,2.491,1.638l-0.492,0.653c-0.373-0.333-1.319-1.065-1.999-1.545v1.905H149.607z
		 M150.38,16.285c-0.013,0.213-0.053,0.439-0.093,0.652c0.825,0.573,1.824,1.346,2.371,1.825l-0.6,0.612
		c-0.439-0.439-1.266-1.105-2.025-1.665c-0.386,0.826-1.132,1.626-2.57,2.278c-0.106-0.2-0.333-0.52-0.493-0.68
		c1.958-0.879,2.465-1.984,2.584-3.023h-2.411v-0.799h2.438V14.26l1.079,0.066c-0.014,0.093-0.08,0.16-0.254,0.187v0.973h2.479
		v0.799H150.38z M148.103,8.279c0.359,0.466,0.692,1.119,0.813,1.545l-0.68,0.293c-0.12-0.439-0.439-1.105-0.786-1.598
		L148.103,8.279z M151.072,9.877c0.28-0.453,0.627-1.172,0.8-1.652l0.919,0.347c-0.04,0.08-0.133,0.106-0.267,0.106
		c-0.213,0.426-0.56,1.052-0.853,1.465L151.072,9.877z M155.509,18.43c-0.04,0.054-0.12,0.093-0.24,0.106
		c-0.532,0.586-1.678,1.306-2.678,1.705c-0.133-0.173-0.399-0.453-0.599-0.6c0.999-0.386,2.118-1.079,2.65-1.665L155.509,18.43z
		 M153.391,10.677h1.812c0.12-0.426,0.24-0.932,0.333-1.372h-2.611V8.505h6.461v0.799h-2.931c-0.093,0.4-0.239,0.919-0.399,1.372
		h2.851v7.007h-5.515V10.677z M158.053,12.782v-1.386h-3.836v1.386H158.053z M158.053,14.86v-1.386h-3.836v1.386H158.053z
		 M158.053,16.965v-1.413h-3.836v1.413H158.053z M157.307,18.03c0.786,0.479,1.799,1.212,2.331,1.718
		c-0.079,0.054-0.159,0.107-0.706,0.493c-0.479-0.493-1.491-1.238-2.291-1.758L157.307,18.03z"/>
	<path fill="#FFFFFF" d="M167.884,14.034c0,0.759-0.612,1.372-1.372,1.372c-0.759,0-1.372-0.613-1.372-1.372
		s0.613-1.372,1.372-1.372C167.298,12.662,167.884,13.301,167.884,14.034z"/>
	<path fill="#FFFFFF" d="M180.673,10.876c0.227,1.386,0.532,2.584,0.999,3.664c1.025-0.719,2.265-1.732,3.023-2.518l0.893,0.679
		c-0.066,0.066-0.16,0.093-0.307,0.066c-0.839,0.773-2.197,1.785-3.276,2.491c0.853,1.625,2.118,2.944,4.116,4.129
		c-0.24,0.173-0.52,0.506-0.653,0.772c-3.623-2.291-4.929-4.955-5.621-8.925c-0.6,0.919-1.426,1.852-2.371,2.691l0.347,0.066
		c-0.014,0.08-0.094,0.16-0.267,0.173v4.609c1.212-0.227,2.558-0.467,3.85-0.706l0.053,0.799c-2.225,0.467-4.622,0.933-6.114,1.212
		c-0.013,0.107-0.093,0.174-0.173,0.2l-0.426-1.025l1.904-0.32v-4.329c-0.772,0.6-1.625,1.146-2.504,1.585
		c-0.106-0.213-0.347-0.586-0.507-0.772c2.172-1.025,4.196-2.744,5.342-4.542h-5.062v-0.866h5.422V7.839l1.186,0.08
		c-0.014,0.093-0.094,0.16-0.267,0.187v1.905h5.515v0.866H180.673z"/>
	<path fill="#FFFFFF" d="M189.571,13.967v-2.105c-0.6,0.853-1.386,1.652-2.118,2.091c-0.12-0.173-0.359-0.453-0.533-0.599
		c0.84-0.439,1.759-1.332,2.345-2.225h-2.145v-0.746h2.451V7.866l1.053,0.066c-0.014,0.08-0.08,0.146-0.254,0.173v2.278h2.425v0.746
		h-2.425v0.187c0.547,0.319,2.118,1.345,2.491,1.638l-0.492,0.653c-0.373-0.333-1.319-1.065-1.999-1.545v1.905H189.571z
		 M190.344,16.285c-0.014,0.213-0.053,0.439-0.093,0.652c0.825,0.573,1.824,1.346,2.371,1.825l-0.6,0.612
		c-0.439-0.439-1.266-1.105-2.025-1.665c-0.386,0.826-1.132,1.626-2.57,2.278c-0.106-0.2-0.333-0.52-0.493-0.68
		c1.958-0.879,2.465-1.984,2.584-3.023h-2.411v-0.799h2.438V14.26l1.079,0.066c-0.014,0.093-0.08,0.16-0.254,0.187v0.973h2.479
		v0.799H190.344z M188.066,8.279c0.359,0.466,0.692,1.119,0.813,1.545l-0.68,0.293c-0.12-0.439-0.439-1.105-0.786-1.598
		L188.066,8.279z M191.036,9.877c0.28-0.453,0.627-1.172,0.8-1.652l0.919,0.347c-0.04,0.08-0.133,0.106-0.267,0.106
		c-0.213,0.426-0.56,1.052-0.853,1.465L191.036,9.877z M195.473,18.43c-0.04,0.054-0.12,0.093-0.24,0.106
		c-0.532,0.586-1.678,1.306-2.678,1.705c-0.133-0.173-0.399-0.453-0.599-0.6c0.999-0.386,2.118-1.079,2.65-1.665L195.473,18.43z
		 M193.354,10.677h1.812c0.12-0.426,0.24-0.932,0.333-1.372h-2.61V8.505h6.46v0.799h-2.931c-0.093,0.4-0.239,0.919-0.399,1.372
		h2.851v7.007h-5.515V10.677z M198.017,12.782v-1.386h-3.836v1.386H198.017z M198.017,14.86v-1.386h-3.836v1.386H198.017z
		 M198.017,16.965v-1.413h-3.836v1.413H198.017z M197.271,18.03c0.786,0.479,1.799,1.212,2.331,1.718
		c-0.079,0.054-0.159,0.107-0.706,0.493c-0.479-0.493-1.491-1.238-2.291-1.758L197.271,18.03z"/>
</g>
</svg>
