<?xml version="1.0" encoding="utf-8"?>
<!-- Generator: Adobe Illustrator 15.1.0, SVG Export Plug-In . SVG Version: 6.00 Build 0)  -->
<!DOCTYPE svg PUBLIC "-//W3C//DTD SVG 1.1//EN" "http://www.w3.org/Graphics/SVG/1.1/DTD/svg11.dtd">
<svg version="1.1" id="レイヤー_1" xmlns="http://www.w3.org/2000/svg" xmlns:xlink="http://www.w3.org/1999/xlink" x="0px"
	 y="0px" width="150px" height="20px" viewBox="0 0 150 20" enable-background="new 0 0 150 20" xml:space="preserve">
<g>
	<path fill="#FFFEFE" d="M21.034,4.776v2.07h-1.06v-3.08h2.559c-0.293-0.685-0.978-1.662-1.629-2.412l0.929-0.44
		c0.668,0.733,1.401,1.728,1.711,2.412l-0.847,0.44h7.203l-0.196-0.098c0.701-0.766,1.597-2.004,2.103-2.901l1.304,0.554
		c-0.065,0.114-0.196,0.146-0.342,0.13c-0.473,0.684-1.206,1.597-1.858,2.314h2.852v3.08h-1.108v-2.07H21.034z M30.958,11.621
		c1.173,1.092,2.607,2.623,3.292,3.65l-1.027,0.537c-0.195-0.31-0.456-0.668-0.766-1.059c-4.27,0.195-8.882,0.375-11.75,0.456
		c-0.033,0.131-0.13,0.212-0.244,0.244l-0.473-1.304c1.597-0.032,3.797-0.081,6.225-0.146v-2.705h-4.709V7.058h4.709V5.265
		l1.401,0.098c-0.016,0.114-0.114,0.195-0.326,0.228v1.467h4.824v4.237h-4.824v2.673c1.45-0.033,2.933-0.082,4.4-0.131
		c-0.538-0.619-1.141-1.238-1.679-1.76L30.958,11.621z M22.533,10.382h3.683V7.987h-3.683V10.382z M26.265,0.67
		c0.521,0.814,1.043,1.906,1.189,2.624l-1.01,0.358c-0.163-0.717-0.635-1.841-1.141-2.672L26.265,0.67z M31.024,7.987h-3.732v2.396
		h3.732V7.987z"/>
	<path fill="#FFFEFE" d="M41.713,8.329c0,0.13-0.13,0.212-0.326,0.228c-0.375,3.292-1.108,5.916-5.264,7.251
		c-0.114-0.276-0.44-0.717-0.668-0.944c3.895-1.142,4.546-3.472,4.807-6.666L41.713,8.329z M45.706,14.049
		c0,0.538,0.131,0.652,0.799,0.652h2.281c0.668,0,0.799-0.407,0.864-2.819c0.245,0.212,0.717,0.391,1.01,0.473
		c-0.13,2.673-0.423,3.39-1.792,3.39h-2.46c-1.418,0-1.809-0.375-1.809-1.695V8.02h-8.849V6.977h6.747V0.604l1.434,0.098
		c-0.017,0.114-0.098,0.196-0.326,0.229v6.046h6.877V8.02h-4.628c-0.049,0.016-0.098,0.016-0.147,0.032V14.049z M38.161,1.436
		c0.864,1.288,1.744,2.982,2.069,4.09L39.171,5.95c-0.293-1.092-1.141-2.835-2.004-4.139L38.161,1.436z M49.389,1.794
		c-0.049,0.098-0.179,0.163-0.375,0.163c-0.538,1.19-1.451,2.901-2.184,3.977c-0.016,0-0.913-0.408-0.913-0.408
		c0.733-1.125,1.663-2.966,2.151-4.27L49.389,1.794z"/>
	<path fill="#FFFEFE" d="M51.686,8.117c0.864-0.929,1.255-2.51,1.418-4.058L54,4.255c-0.195,1.63-0.538,3.341-1.483,4.335
		L51.686,8.117z M56.346,0.702c-0.016,0.114-0.098,0.196-0.31,0.229v5.182c0,1.255-0.049,2.542-0.261,3.781
		c0.831,0.701,2.95,2.656,3.487,3.194l-0.733,0.88c-0.587-0.685-2.021-2.118-2.999-3.031c-0.473,1.776-1.369,3.422-3.064,4.823
		c-0.163-0.261-0.521-0.635-0.766-0.798c2.966-2.444,3.276-5.72,3.276-8.849V0.621L56.346,0.702z M59.41,4.239
		c-0.049,0.098-0.179,0.146-0.358,0.13c-0.44,0.994-1.206,2.46-1.809,3.373l-0.782-0.44c0.587-0.961,1.336-2.542,1.744-3.667
		L59.41,4.239z M67.135,1.892v1.076h-3.243V14.31c0,1.435-0.685,1.516-3.765,1.483c-0.049-0.31-0.228-0.782-0.391-1.092
		c0.587,0.016,1.157,0.032,1.613,0.032c1.304,0,1.435,0,1.435-0.439V2.968h-4.482V1.892H67.135z"/>
	<path fill="#FFFEFE" d="M77.367,8.183c0,0.929-0.749,1.678-1.678,1.678c-0.929,0-1.678-0.75-1.678-1.678
		c0-0.929,0.75-1.679,1.678-1.679C76.65,6.504,77.367,7.286,77.367,8.183z"/>
	<path fill="#FFFEFE" d="M89.801,4.923l0.782,0.359c-0.033,0.065-0.098,0.146-0.18,0.195c-0.847,4.107-2.852,7.138-5.279,8.784
		c-0.196-0.276-0.62-0.7-0.881-0.88c2.2-1.368,4.025-3.895,4.856-7.301h-4.416V4.972h4.922L89.801,4.923z M92.57,3.652
		c0.359,1.353,0.848,2.656,1.435,3.862c1.369-1.157,3.031-2.868,4.042-4.188l1.156,0.864c-0.081,0.098-0.228,0.114-0.358,0.098
		c-1.124,1.238-2.949,2.982-4.367,4.123c1.304,2.281,3.048,4.123,5.28,5.068c-0.277,0.229-0.652,0.668-0.848,0.994
		c-2.966-1.418-5.003-4.318-6.34-7.854v7.545c0,1.483-0.684,1.613-3.747,1.613c-0.065-0.326-0.277-0.88-0.457-1.189
		c0.619,0.017,1.19,0.017,1.646,0.017c1.368,0,1.417,0,1.417-0.44V0.653l1.467,0.082c-0.016,0.13-0.098,0.212-0.326,0.228V3.652z"/>
	<path fill="#FFFEFE" d="M107.433,12.745l0.049,0.929c-2.249,0.44-4.612,0.896-6.095,1.174c-0.017,0.13-0.114,0.195-0.229,0.229
		l-0.375-1.239c0.815-0.114,1.826-0.276,2.934-0.473V8.557h-2.786V7.563h2.786V5.705h-1.841V5.314
		c-0.196,0.211-0.392,0.423-0.604,0.619c-0.179-0.245-0.521-0.587-0.766-0.733c1.516-1.401,2.64-3.194,3.259-4.596l1.337,0.212
		c-0.033,0.114-0.131,0.195-0.326,0.195v0.017c1.075,0.864,2.33,2.021,2.966,2.787c-0.391,0.44-0.521,0.636-0.668,0.847
		c-0.587-0.75-1.728-1.857-2.771-2.754c-0.505,0.896-1.141,1.891-1.939,2.835h4.318v0.961h-1.955v1.858h2.656v0.994h-2.656v4.644
		L107.433,12.745z M102.088,12.729c-0.065-0.848-0.375-2.119-0.733-3.097l0.814-0.212c0.375,0.978,0.685,2.232,0.766,3.063
		L102.088,12.729z M107.318,9.682c-0.049,0.098-0.163,0.146-0.326,0.146c-0.228,0.782-0.651,1.988-0.994,2.754
		c-0.016,0-0.749-0.276-0.749-0.276c0.326-0.799,0.749-2.119,0.945-3.015L107.318,9.682z M111.865,8.427
		c0.229,0.945,0.505,1.842,0.88,2.656c0.766-0.586,1.646-1.353,2.2-1.956l0.945,0.848c-0.082,0.082-0.212,0.114-0.358,0.082
		c-0.604,0.538-1.581,1.304-2.38,1.857c0.718,1.32,1.679,2.347,2.885,2.95c-0.244,0.212-0.57,0.619-0.717,0.912
		c-2.314-1.32-3.684-4.024-4.384-7.35h-1.63v5.524c1.06-0.179,2.217-0.407,3.373-0.619l0.082,0.962
		c-1.891,0.423-3.846,0.847-5.085,1.092c-0.032,0.13-0.114,0.212-0.228,0.244l-0.44-1.271l1.255-0.212V1.322h6.796v7.105H111.865z
		 M114,2.315h-4.693v2.037H114V2.315z M109.307,5.314v2.102H114V5.314H109.307z"/>
	<path fill="#FFFEFE" d="M120.99,6.813c0.571,0.57,2.086,2.331,2.461,2.771l-0.7,0.913c-0.326-0.538-1.125-1.63-1.761-2.445v7.676
		h-1.059V7.53c-0.668,1.988-1.581,3.928-2.51,5.101c-0.131-0.31-0.407-0.732-0.604-0.993c1.174-1.402,2.38-4.058,2.982-6.405h-2.607
		V4.19h2.738V0.604l1.369,0.098c-0.017,0.114-0.099,0.18-0.311,0.212V4.19h2.38v1.043h-2.38V6.813z M128.373,14.146h3.895v1.06
		h-9.55v-1.06h4.547V9.91h-3.227V8.851h3.227v-3.83h-3.504V3.978h8.197v1.043h-3.585v3.83h3.39V9.91h-3.39V14.146z M126.238,0.588
		c1.108,0.701,2.428,1.792,3.031,2.591c-0.082,0.065-0.163,0.147-0.815,0.75c-0.586-0.799-1.874-1.923-2.981-2.673L126.238,0.588z"
		/>
</g>
</svg>
